%TF.GenerationSoftware,KiCad,Pcbnew,(6.0.5)*%
%TF.CreationDate,2022-10-05T18:31:43+01:00*%
%TF.ProjectId,DRV8876 Breakout,44525638-3837-4362-9042-7265616b6f75,V22.10.0.1*%
%TF.SameCoordinates,PX8c7ecc0PY4d83c00*%
%TF.FileFunction,Paste,Top*%
%TF.FilePolarity,Positive*%
%FSLAX46Y46*%
G04 Gerber Fmt 4.6, Leading zero omitted, Abs format (unit mm)*
G04 Created by KiCad (PCBNEW (6.0.5)) date 2022-10-05 18:31:43*
%MOMM*%
%LPD*%
G01*
G04 APERTURE LIST*
G04 Aperture macros list*
%AMRoundRect*
0 Rectangle with rounded corners*
0 $1 Rounding radius*
0 $2 $3 $4 $5 $6 $7 $8 $9 X,Y pos of 4 corners*
0 Add a 4 corners polygon primitive as box body*
4,1,4,$2,$3,$4,$5,$6,$7,$8,$9,$2,$3,0*
0 Add four circle primitives for the rounded corners*
1,1,$1+$1,$2,$3*
1,1,$1+$1,$4,$5*
1,1,$1+$1,$6,$7*
1,1,$1+$1,$8,$9*
0 Add four rect primitives between the rounded corners*
20,1,$1+$1,$2,$3,$4,$5,0*
20,1,$1+$1,$4,$5,$6,$7,0*
20,1,$1+$1,$6,$7,$8,$9,0*
20,1,$1+$1,$8,$9,$2,$3,0*%
G04 Aperture macros list end*
%ADD10RoundRect,0.225000X0.225000X0.250000X-0.225000X0.250000X-0.225000X-0.250000X0.225000X-0.250000X0*%
%ADD11RoundRect,0.200000X0.200000X0.275000X-0.200000X0.275000X-0.200000X-0.275000X0.200000X-0.275000X0*%
%ADD12RoundRect,0.157500X-0.157500X-0.157500X0.157500X-0.157500X0.157500X0.157500X-0.157500X0.157500X0*%
%ADD13RoundRect,0.048000X-0.252000X-0.072000X0.252000X-0.072000X0.252000X0.072000X-0.252000X0.072000X0*%
%ADD14RoundRect,0.048000X0.072000X-0.252000X0.072000X0.252000X-0.072000X0.252000X-0.072000X-0.252000X0*%
%ADD15RoundRect,0.000000X-0.775000X-0.775000X0.775000X-0.775000X0.775000X0.775000X-0.775000X0.775000X0*%
%ADD16RoundRect,0.225000X-0.250000X0.225000X-0.250000X-0.225000X0.250000X-0.225000X0.250000X0.225000X0*%
%ADD17RoundRect,0.200000X-0.275000X0.200000X-0.275000X-0.200000X0.275000X-0.200000X0.275000X0.200000X0*%
%ADD18RoundRect,0.200000X-0.200000X-0.275000X0.200000X-0.275000X0.200000X0.275000X-0.200000X0.275000X0*%
%ADD19RoundRect,0.225000X0.250000X-0.225000X0.250000X0.225000X-0.250000X0.225000X-0.250000X-0.225000X0*%
%ADD20RoundRect,0.218750X0.256250X-0.218750X0.256250X0.218750X-0.256250X0.218750X-0.256250X-0.218750X0*%
%ADD21RoundRect,0.250000X-1.950000X-1.000000X1.950000X-1.000000X1.950000X1.000000X-1.950000X1.000000X0*%
G04 APERTURE END LIST*
D10*
%TO.C,C1*%
X-9160000Y4400000D03*
X-10710000Y4400000D03*
%TD*%
D11*
%TO.C,R4*%
X-9160000Y6150000D03*
X-10810000Y6150000D03*
%TD*%
D12*
%TO.C,U1*%
X360000Y360000D03*
X-360000Y360000D03*
D13*
X-1400000Y750000D03*
X-1400000Y250000D03*
X-1400000Y-250000D03*
X-1400000Y-750000D03*
D14*
X-750000Y-1400000D03*
X-250000Y-1400000D03*
X250000Y-1400000D03*
X750000Y-1400000D03*
D13*
X1400000Y-750000D03*
X1400000Y-250000D03*
X1400000Y250000D03*
X1400000Y750000D03*
D15*
X0Y0D03*
D14*
X750000Y1400000D03*
X250000Y1400000D03*
X-250000Y1400000D03*
X-750000Y1400000D03*
%TD*%
D16*
%TO.C,C5*%
X3500000Y-1250000D03*
X3500000Y-2800000D03*
%TD*%
D17*
%TO.C,R6*%
X-6350000Y-4318000D03*
X-6350000Y-5968000D03*
%TD*%
D11*
%TO.C,R7*%
X-5500000Y-2500000D03*
X-7150000Y-2500000D03*
%TD*%
D18*
%TO.C,R2*%
X-4825000Y8255000D03*
X-3175000Y8255000D03*
%TD*%
D19*
%TO.C,C4*%
X3500000Y1500000D03*
X3500000Y3050000D03*
%TD*%
D20*
%TO.C,D1*%
X-4675000Y9967500D03*
X-4675000Y11542500D03*
%TD*%
D11*
%TO.C,R3*%
X-9160000Y7900000D03*
X-10810000Y7900000D03*
%TD*%
D10*
%TO.C,C2*%
X-5500000Y-750000D03*
X-7050000Y-750000D03*
%TD*%
D21*
%TO.C,C6*%
X7500000Y-8000000D03*
X15900000Y-8000000D03*
%TD*%
D19*
%TO.C,C3*%
X5250000Y-1250000D03*
X5250000Y300000D03*
%TD*%
D11*
%TO.C,R5*%
X-9160000Y2650000D03*
X-10810000Y2650000D03*
%TD*%
D18*
%TO.C,R1*%
X-4825000Y13255000D03*
X-3175000Y13255000D03*
%TD*%
M02*
