%TF.GenerationSoftware,KiCad,Pcbnew,(6.0.5)*%
%TF.CreationDate,2022-10-05T18:31:43+01:00*%
%TF.ProjectId,DRV8876 Breakout,44525638-3837-4362-9042-7265616b6f75,V22.10.0.1*%
%TF.SameCoordinates,PX8c7ecc0PY4d83c00*%
%TF.FileFunction,Soldermask,Bot*%
%TF.FilePolarity,Negative*%
%FSLAX46Y46*%
G04 Gerber Fmt 4.6, Leading zero omitted, Abs format (unit mm)*
G04 Created by KiCad (PCBNEW (6.0.5)) date 2022-10-05 18:31:43*
%MOMM*%
%LPD*%
G01*
G04 APERTURE LIST*
G04 Aperture macros list*
%AMRoundRect*
0 Rectangle with rounded corners*
0 $1 Rounding radius*
0 $2 $3 $4 $5 $6 $7 $8 $9 X,Y pos of 4 corners*
0 Add a 4 corners polygon primitive as box body*
4,1,4,$2,$3,$4,$5,$6,$7,$8,$9,$2,$3,0*
0 Add four circle primitives for the rounded corners*
1,1,$1+$1,$2,$3*
1,1,$1+$1,$4,$5*
1,1,$1+$1,$6,$7*
1,1,$1+$1,$8,$9*
0 Add four rect primitives between the rounded corners*
20,1,$1+$1,$2,$3,$4,$5,0*
20,1,$1+$1,$4,$5,$6,$7,0*
20,1,$1+$1,$6,$7,$8,$9,0*
20,1,$1+$1,$8,$9,$2,$3,0*%
G04 Aperture macros list end*
%ADD10C,0.150000*%
%ADD11C,0.635500*%
%ADD12C,0.001000*%
%ADD13C,0.500000*%
%ADD14RoundRect,0.050000X-0.790000X-0.790000X0.790000X-0.790000X0.790000X0.790000X-0.790000X0.790000X0*%
%ADD15R,1.700000X1.700000*%
%ADD16O,1.700000X1.700000*%
G04 APERTURE END LIST*
D10*
%TO.C,REF\u002A\u002A*%
X1632976Y17327620D02*
X1966309Y17803810D01*
X2204404Y17327620D02*
X2204404Y18327620D01*
X1823452Y18327620D01*
X1728214Y18280000D01*
X1680595Y18232381D01*
X1632976Y18137143D01*
X1632976Y17994286D01*
X1680595Y17899048D01*
X1728214Y17851429D01*
X1823452Y17803810D01*
X2204404Y17803810D01*
X1204404Y17327620D02*
X1204404Y18327620D01*
X728214Y17851429D02*
X394880Y17851429D01*
X252023Y17327620D02*
X728214Y17327620D01*
X728214Y18327620D01*
X252023Y18327620D01*
X-176548Y17327620D02*
X-176548Y18327620D01*
X-414643Y18327620D01*
X-557500Y18280000D01*
X-652739Y18184762D01*
X-700358Y18089524D01*
X-747977Y17899048D01*
X-747977Y17756191D01*
X-700358Y17565715D01*
X-652739Y17470477D01*
X-557500Y17375239D01*
X-414643Y17327620D01*
X-176548Y17327620D01*
D11*
X3492750Y17780000D02*
G75*
G03*
X3492750Y17780000I-317750J0D01*
G01*
X6032750Y12700000D02*
G75*
G03*
X6032750Y12700000I-317750J0D01*
G01*
X4762750Y15240000D02*
G75*
G03*
X4762750Y15240000I-317750J0D01*
G01*
X6032750Y17780000D02*
G75*
G03*
X6032750Y17780000I-317750J0D01*
G01*
G36*
X6350000Y17780000D02*
G01*
X6350000Y12700000D01*
X5715000Y12065000D01*
X5080000Y12065000D01*
X5080000Y14605000D01*
X4445000Y14605000D01*
X4445000Y15875000D01*
X5080000Y15875000D01*
X5080000Y17145000D01*
X3175000Y17145000D01*
X3175000Y18415000D01*
X5715000Y18415000D01*
X6350000Y17780000D01*
G37*
D12*
X6350000Y17780000D02*
X6350000Y12700000D01*
X5715000Y12065000D01*
X5080000Y12065000D01*
X5080000Y14605000D01*
X4445000Y14605000D01*
X4445000Y15875000D01*
X5080000Y15875000D01*
X5080000Y17145000D01*
X3175000Y17145000D01*
X3175000Y18415000D01*
X5715000Y18415000D01*
X6350000Y17780000D01*
%TD*%
D13*
%TO.C,U1*%
X0Y0D03*
D14*
X0Y0D03*
D13*
X500000Y500000D03*
X-500000Y-500000D03*
X500000Y-500000D03*
X-500000Y500000D03*
%TD*%
D15*
%TO.C,J1*%
X8875000Y22860000D03*
D16*
X6335000Y22860000D03*
X3795000Y22860000D03*
X1255000Y22860000D03*
X-1285000Y22860000D03*
X-3825000Y22860000D03*
X-6365000Y22860000D03*
X-8905000Y22860000D03*
%TD*%
D15*
%TO.C,J2*%
X8890000Y-22860000D03*
D16*
X6350000Y-22860000D03*
X3810000Y-22860000D03*
X1270000Y-22860000D03*
X-1270000Y-22860000D03*
X-3810000Y-22860000D03*
X-6350000Y-22860000D03*
X-8890000Y-22860000D03*
%TD*%
M02*
