%TF.GenerationSoftware,KiCad,Pcbnew,(6.0.5)*%
%TF.CreationDate,2022-10-05T18:31:43+01:00*%
%TF.ProjectId,DRV8876 Breakout,44525638-3837-4362-9042-7265616b6f75,V22.10.0.1*%
%TF.SameCoordinates,PX8c7ecc0PY4d83c00*%
%TF.FileFunction,Legend,Bot*%
%TF.FilePolarity,Positive*%
%FSLAX46Y46*%
G04 Gerber Fmt 4.6, Leading zero omitted, Abs format (unit mm)*
G04 Created by KiCad (PCBNEW (6.0.5)) date 2022-10-05 18:31:43*
%MOMM*%
%LPD*%
G01*
G04 APERTURE LIST*
%ADD10C,0.150000*%
%ADD11C,0.635500*%
%ADD12C,0.001000*%
%ADD13C,0.120000*%
G04 APERTURE END LIST*
D10*
%TO.C,REF\u002A\u002A*%
X1728214Y12247620D02*
X2204404Y12247620D01*
X2204404Y13247620D01*
X1394880Y12771429D02*
X1061547Y12771429D01*
X918690Y12247620D02*
X1394880Y12247620D01*
X1394880Y13247620D01*
X918690Y13247620D01*
X-81310Y12342858D02*
X-33691Y12295239D01*
X109166Y12247620D01*
X204404Y12247620D01*
X347261Y12295239D01*
X442500Y12390477D01*
X490119Y12485715D01*
X537738Y12676191D01*
X537738Y12819048D01*
X490119Y13009524D01*
X442500Y13104762D01*
X347261Y13200000D01*
X204404Y13247620D01*
X109166Y13247620D01*
X-33691Y13200000D01*
X-81310Y13152381D01*
X-367024Y13247620D02*
X-938453Y13247620D01*
X-652739Y12247620D02*
X-652739Y13247620D01*
X-1843215Y12247620D02*
X-1509881Y12723810D01*
X-1271786Y12247620D02*
X-1271786Y13247620D01*
X-1652739Y13247620D01*
X-1747977Y13200000D01*
X-1795596Y13152381D01*
X-1843215Y13057143D01*
X-1843215Y12914286D01*
X-1795596Y12819048D01*
X-1747977Y12771429D01*
X-1652739Y12723810D01*
X-1271786Y12723810D01*
X-2462262Y13247620D02*
X-2652739Y13247620D01*
X-2747977Y13200000D01*
X-2843215Y13104762D01*
X-2890834Y12914286D01*
X-2890834Y12580953D01*
X-2843215Y12390477D01*
X-2747977Y12295239D01*
X-2652739Y12247620D01*
X-2462262Y12247620D01*
X-2367024Y12295239D01*
X-2271786Y12390477D01*
X-2224167Y12580953D01*
X-2224167Y12914286D01*
X-2271786Y13104762D01*
X-2367024Y13200000D01*
X-2462262Y13247620D01*
X-3319405Y12247620D02*
X-3319405Y13247620D01*
X-3890834Y12247620D01*
X-3890834Y13247620D01*
X-4367024Y12247620D02*
X-4367024Y13247620D01*
X-5414643Y12342858D02*
X-5367024Y12295239D01*
X-5224167Y12247620D01*
X-5128929Y12247620D01*
X-4986072Y12295239D01*
X-4890834Y12390477D01*
X-4843215Y12485715D01*
X-4795596Y12676191D01*
X-4795596Y12819048D01*
X-4843215Y13009524D01*
X-4890834Y13104762D01*
X-4986072Y13200000D01*
X-5128929Y13247620D01*
X-5224167Y13247620D01*
X-5367024Y13200000D01*
X-5414643Y13152381D01*
X-5795596Y12295239D02*
X-5938453Y12247620D01*
X-6176548Y12247620D01*
X-6271786Y12295239D01*
X-6319405Y12342858D01*
X-6367024Y12438096D01*
X-6367024Y12533334D01*
X-6319405Y12628572D01*
X-6271786Y12676191D01*
X-6176548Y12723810D01*
X-5986072Y12771429D01*
X-5890834Y12819048D01*
X-5843215Y12866667D01*
X-5795596Y12961905D01*
X-5795596Y13057143D01*
X-5843215Y13152381D01*
X-5890834Y13200000D01*
X-5986072Y13247620D01*
X-6224167Y13247620D01*
X-6367024Y13200000D01*
%TO.C,J1*%
X10657380Y23193334D02*
X11371666Y23193334D01*
X11514523Y23240953D01*
X11609761Y23336191D01*
X11657380Y23479048D01*
X11657380Y23574286D01*
X11657380Y22193334D02*
X11657380Y22764762D01*
X11657380Y22479048D02*
X10657380Y22479048D01*
X10800238Y22574286D01*
X10895476Y22669524D01*
X10943095Y22764762D01*
%TO.C,J2*%
X10672380Y-22526666D02*
X11386666Y-22526666D01*
X11529523Y-22479047D01*
X11624761Y-22383809D01*
X11672380Y-22240952D01*
X11672380Y-22145714D01*
X10767619Y-22955238D02*
X10720000Y-23002857D01*
X10672380Y-23098095D01*
X10672380Y-23336190D01*
X10720000Y-23431428D01*
X10767619Y-23479047D01*
X10862857Y-23526666D01*
X10958095Y-23526666D01*
X11100952Y-23479047D01*
X11672380Y-22907619D01*
X11672380Y-23526666D01*
%TO.C,REF\u002A\u002A*%
D11*
X3492750Y12700000D02*
G75*
G03*
X3492750Y12700000I-317750J0D01*
G01*
G36*
X5054600Y12065000D02*
G01*
X3175000Y12065000D01*
X3175000Y13335000D01*
X5054600Y13335000D01*
X5054600Y12065000D01*
G37*
D12*
X5054600Y12065000D02*
X3175000Y12065000D01*
X3175000Y13335000D01*
X5054600Y13335000D01*
X5054600Y12065000D01*
D13*
%TO.C,J1*%
X7605000Y21530000D02*
X7605000Y24190000D01*
X10205000Y21530000D02*
X10205000Y22860000D01*
X7605000Y24190000D02*
X-10235000Y24190000D01*
X7605000Y21530000D02*
X-10235000Y21530000D01*
X-10235000Y21530000D02*
X-10235000Y24190000D01*
X8875000Y21530000D02*
X10205000Y21530000D01*
%TO.C,J2*%
X7620000Y-24190000D02*
X7620000Y-21530000D01*
X10220000Y-24190000D02*
X10220000Y-22860000D01*
X8890000Y-24190000D02*
X10220000Y-24190000D01*
X7620000Y-24190000D02*
X-10220000Y-24190000D01*
X7620000Y-21530000D02*
X-10220000Y-21530000D01*
X-10220000Y-24190000D02*
X-10220000Y-21530000D01*
%TD*%
M02*
