M48
; DRILL file {KiCad (6.0.5)} date Wed Oct  5 18:31:47 2022
; FORMAT={-:-/ absolute / inch / decimal}
; #@! TF.CreationDate,2022-10-05T18:31:47+01:00
; #@! TF.GenerationSoftware,Kicad,Pcbnew,(6.0.5)
; #@! TF.FileFunction,Plated,1,2,PTH
FMAT,2
INCH
; #@! TA.AperFunction,Plated,PTH,ViaDrill
T1C0.0118
; #@! TA.AperFunction,Plated,PTH,ComponentDrill
T2C0.0118
; #@! TA.AperFunction,Plated,PTH,ComponentDrill
T3C0.0394
%
G90
G05
T1
X-0.5Y0.75
X-0.5Y0.575
X-0.5Y0.25
X-0.5Y0.0
X-0.5Y-0.25
X-0.5Y-0.5
X-0.5Y-0.75
X-0.4591Y0.1732
X-0.4591Y0.1043
X-0.35Y0.725
X-0.315Y-0.0295
X-0.315Y-0.0984
X-0.3Y0.55
X-0.3Y-0.75
X-0.25Y0.4
X-0.25Y0.175
X-0.25Y-0.27
X-0.25Y-0.5
X-0.2Y0.85
X-0.175Y0.725
X-0.15Y-0.1
X-0.125Y0.65
X-0.075Y0.4
X0.0Y0.85
X0.0Y0.75
X0.0Y0.5
X0.0Y0.25
X0.1Y0.85
X0.1Y0.775
X0.1Y0.45
X0.1378Y-0.1476
X0.2Y0.85
X0.2Y0.75
X0.2Y0.45
X0.25Y0.25
X0.3Y0.775
X0.3Y0.425
X0.5Y0.75
X0.5Y0.6
X0.5Y0.25
X0.5Y0.0
X0.5Y-0.25
X0.5Y-0.5
X0.5Y-0.75
X0.5118Y0.4201
X0.5217Y-0.2854
X0.5217Y-0.315
X0.5217Y-0.3445
T2
X-0.0197Y0.0197
X-0.0197Y-0.0197
X0.0Y0.0
X0.0197Y0.0197
X0.0197Y-0.0197
T3
X-0.3506Y0.9
X-0.35Y-0.9
X-0.2506Y0.9
X-0.25Y-0.9
X-0.1506Y0.9
X-0.15Y-0.9
X-0.0506Y0.9
X-0.05Y-0.9
X0.0494Y0.9
X0.05Y-0.9
X0.1494Y0.9
X0.15Y-0.9
X0.2494Y0.9
X0.25Y-0.9
X0.3494Y0.9
X0.35Y-0.9
T0
M30
