%TF.GenerationSoftware,KiCad,Pcbnew,(6.0.5)*%
%TF.CreationDate,2022-10-05T18:31:43+01:00*%
%TF.ProjectId,DRV8876 Breakout,44525638-3837-4362-9042-7265616b6f75,V22.10.0.1*%
%TF.SameCoordinates,PX8c7ecc0PY4d83c00*%
%TF.FileFunction,Copper,L2,Bot*%
%TF.FilePolarity,Positive*%
%FSLAX46Y46*%
G04 Gerber Fmt 4.6, Leading zero omitted, Abs format (unit mm)*
G04 Created by KiCad (PCBNEW (6.0.5)) date 2022-10-05 18:31:43*
%MOMM*%
%LPD*%
G01*
G04 APERTURE LIST*
G04 Aperture macros list*
%AMRoundRect*
0 Rectangle with rounded corners*
0 $1 Rounding radius*
0 $2 $3 $4 $5 $6 $7 $8 $9 X,Y pos of 4 corners*
0 Add a 4 corners polygon primitive as box body*
4,1,4,$2,$3,$4,$5,$6,$7,$8,$9,$2,$3,0*
0 Add four circle primitives for the rounded corners*
1,1,$1+$1,$2,$3*
1,1,$1+$1,$4,$5*
1,1,$1+$1,$6,$7*
1,1,$1+$1,$8,$9*
0 Add four rect primitives between the rounded corners*
20,1,$1+$1,$2,$3,$4,$5,0*
20,1,$1+$1,$4,$5,$6,$7,0*
20,1,$1+$1,$6,$7,$8,$9,0*
20,1,$1+$1,$8,$9,$2,$3,0*%
G04 Aperture macros list end*
%TA.AperFunction,ComponentPad*%
%ADD10C,0.500000*%
%TD*%
%TA.AperFunction,SMDPad,CuDef*%
%ADD11RoundRect,0.050000X-0.790000X-0.790000X0.790000X-0.790000X0.790000X0.790000X-0.790000X0.790000X0*%
%TD*%
%TA.AperFunction,ComponentPad*%
%ADD12R,1.700000X1.700000*%
%TD*%
%TA.AperFunction,ComponentPad*%
%ADD13O,1.700000X1.700000*%
%TD*%
%TA.AperFunction,ViaPad*%
%ADD14C,0.700000*%
%TD*%
G04 APERTURE END LIST*
D10*
%TO.P,U1,13,GND*%
%TO.N,GND*%
X0Y0D03*
D11*
X0Y0D03*
D10*
X500000Y500000D03*
X-500000Y-500000D03*
X500000Y-500000D03*
X-500000Y500000D03*
%TD*%
D12*
%TO.P,J1,1,Pin_1*%
%TO.N,+3V3*%
X8875000Y22860000D03*
D13*
%TO.P,J1,2,Pin_2*%
%TO.N,/EN{slash}IN1*%
X6335000Y22860000D03*
%TO.P,J1,3,Pin_3*%
%TO.N,/PH{slash}IN2*%
X3795000Y22860000D03*
%TO.P,J1,4,Pin_4*%
%TO.N,/nSLEEP*%
X1255000Y22860000D03*
%TO.P,J1,5,Pin_5*%
%TO.N,/nFAULT*%
X-1285000Y22860000D03*
%TO.P,J1,6,Pin_6*%
%TO.N,/VREF DAC In*%
X-3825000Y22860000D03*
%TO.P,J1,7,Pin_7*%
%TO.N,/IPROPI*%
X-6365000Y22860000D03*
%TO.P,J1,8,Pin_8*%
%TO.N,/IMODE*%
X-8905000Y22860000D03*
%TD*%
D12*
%TO.P,J2,1,Pin_1*%
%TO.N,/VM*%
X8890000Y-22860000D03*
D13*
%TO.P,J2,2,Pin_2*%
X6350000Y-22860000D03*
%TO.P,J2,3,Pin_3*%
%TO.N,/OUT1*%
X3810000Y-22860000D03*
%TO.P,J2,4,Pin_4*%
X1270000Y-22860000D03*
%TO.P,J2,5,Pin_5*%
%TO.N,/OUT2*%
X-1270000Y-22860000D03*
%TO.P,J2,6,Pin_6*%
X-3810000Y-22860000D03*
%TO.P,J2,7,Pin_7*%
%TO.N,GND*%
X-6350000Y-22860000D03*
%TO.P,J2,8,Pin_8*%
X-8890000Y-22860000D03*
%TD*%
D14*
%TO.N,GND*%
X-6350000Y-12700000D03*
X7620000Y10795000D03*
X13250000Y-8750000D03*
X12700000Y0D03*
X12700000Y19050000D03*
X12700000Y-19050000D03*
X-12700000Y6350000D03*
X-3810000Y-2540000D03*
X-8000000Y-750000D03*
X2540000Y21590000D03*
X0Y19050000D03*
X13250000Y-7250000D03*
X5080000Y19050000D03*
X-12700000Y19050000D03*
X12700000Y-6350000D03*
X0Y12700000D03*
X5080000Y11430000D03*
X-4445000Y18415000D03*
X-5080000Y21590000D03*
X3500000Y-3750000D03*
X-1905000Y10160000D03*
X12700000Y-12700000D03*
X12700000Y15240000D03*
X-7620000Y13970000D03*
X0Y21590000D03*
X-11660000Y4400000D03*
X5080000Y21590000D03*
X-7620000Y-19050000D03*
X-6350000Y-6858000D03*
X-3175000Y16510000D03*
X12700000Y6350000D03*
X-8000000Y-2500000D03*
X13000000Y10670000D03*
X-12700000Y-12700000D03*
X0Y6350000D03*
X-12700000Y14605000D03*
X2540000Y19685000D03*
X-6350000Y10160000D03*
X-12700000Y-19050000D03*
X2540000Y11430000D03*
X-12700000Y0D03*
X7620000Y19685000D03*
X-8890000Y18415000D03*
X-6350000Y4445000D03*
X-11660000Y2650000D03*
X6350000Y6350000D03*
X13250000Y-8000000D03*
X-12700000Y-6350000D03*
%TD*%
%TA.AperFunction,Conductor*%
%TO.N,GND*%
G36*
X15210018Y24890000D02*
G01*
X15224851Y24887690D01*
X15224855Y24887690D01*
X15233724Y24886309D01*
X15252436Y24888756D01*
X15275366Y24889647D01*
X15578503Y24873760D01*
X15591617Y24872382D01*
X15919898Y24820387D01*
X15932798Y24817645D01*
X16253846Y24731621D01*
X16266382Y24727547D01*
X16537468Y24623487D01*
X16576672Y24608438D01*
X16588720Y24603074D01*
X16884867Y24452180D01*
X16896288Y24445586D01*
X17175040Y24264563D01*
X17185710Y24256810D01*
X17444004Y24047648D01*
X17453805Y24038823D01*
X17688823Y23803805D01*
X17697648Y23794004D01*
X17906810Y23535710D01*
X17914563Y23525040D01*
X18095586Y23246288D01*
X18102180Y23234867D01*
X18253074Y22938720D01*
X18258438Y22926672D01*
X18358796Y22665233D01*
X18377545Y22616390D01*
X18381621Y22603846D01*
X18467645Y22282798D01*
X18470387Y22269898D01*
X18522382Y21941617D01*
X18523760Y21928500D01*
X18539262Y21632702D01*
X18537935Y21606727D01*
X18537691Y21605157D01*
X18537691Y21605151D01*
X18536309Y21596276D01*
X18537473Y21587374D01*
X18537473Y21587372D01*
X18540436Y21564717D01*
X18541500Y21548379D01*
X18541500Y-21540633D01*
X18540000Y-21560018D01*
X18537690Y-21574851D01*
X18537690Y-21574855D01*
X18536309Y-21583724D01*
X18538756Y-21602433D01*
X18539647Y-21625366D01*
X18524076Y-21922476D01*
X18523760Y-21928501D01*
X18522382Y-21941617D01*
X18470387Y-22269898D01*
X18467645Y-22282798D01*
X18381621Y-22603846D01*
X18377545Y-22616390D01*
X18258438Y-22926672D01*
X18253074Y-22938720D01*
X18102180Y-23234867D01*
X18095586Y-23246288D01*
X17914563Y-23525040D01*
X17906810Y-23535710D01*
X17697648Y-23794004D01*
X17688823Y-23803805D01*
X17453805Y-24038823D01*
X17444004Y-24047648D01*
X17185710Y-24256810D01*
X17175040Y-24264563D01*
X16896288Y-24445586D01*
X16884867Y-24452180D01*
X16588720Y-24603074D01*
X16576671Y-24608438D01*
X16266382Y-24727547D01*
X16253846Y-24731621D01*
X15932798Y-24817645D01*
X15919898Y-24820387D01*
X15591617Y-24872382D01*
X15578501Y-24873760D01*
X15544848Y-24875524D01*
X15282702Y-24889262D01*
X15256727Y-24887935D01*
X15255157Y-24887691D01*
X15255151Y-24887691D01*
X15246276Y-24886309D01*
X15237374Y-24887473D01*
X15237372Y-24887473D01*
X15222323Y-24889441D01*
X15214714Y-24890436D01*
X15198379Y-24891500D01*
X-15190633Y-24891500D01*
X-15210018Y-24890000D01*
X-15224851Y-24887690D01*
X-15224855Y-24887690D01*
X-15233724Y-24886309D01*
X-15252436Y-24888756D01*
X-15275366Y-24889647D01*
X-15578503Y-24873760D01*
X-15591617Y-24872382D01*
X-15919898Y-24820387D01*
X-15932798Y-24817645D01*
X-16253846Y-24731621D01*
X-16266382Y-24727547D01*
X-16576671Y-24608438D01*
X-16588720Y-24603074D01*
X-16884867Y-24452180D01*
X-16896288Y-24445586D01*
X-17175040Y-24264563D01*
X-17185710Y-24256810D01*
X-17444004Y-24047648D01*
X-17453805Y-24038823D01*
X-17688823Y-23803805D01*
X-17697648Y-23794004D01*
X-17906810Y-23535710D01*
X-17914563Y-23525040D01*
X-18095586Y-23246288D01*
X-18102180Y-23234867D01*
X-18253074Y-22938720D01*
X-18258438Y-22926672D01*
X-18296816Y-22826695D01*
X-5172749Y-22826695D01*
X-5172452Y-22831848D01*
X-5172452Y-22831851D01*
X-5166629Y-22932841D01*
X-5159890Y-23049715D01*
X-5158753Y-23054761D01*
X-5158752Y-23054767D01*
X-5136909Y-23151689D01*
X-5110778Y-23267639D01*
X-5026734Y-23474616D01*
X-4989315Y-23535678D01*
X-4912709Y-23660688D01*
X-4910013Y-23665088D01*
X-4763750Y-23833938D01*
X-4591874Y-23976632D01*
X-4399000Y-24089338D01*
X-4190308Y-24169030D01*
X-4185240Y-24170061D01*
X-4185237Y-24170062D01*
X-4077983Y-24191883D01*
X-3971403Y-24213567D01*
X-3966228Y-24213757D01*
X-3966226Y-24213757D01*
X-3753327Y-24221564D01*
X-3753323Y-24221564D01*
X-3748163Y-24221753D01*
X-3743043Y-24221097D01*
X-3743041Y-24221097D01*
X-3531712Y-24194025D01*
X-3531711Y-24194025D01*
X-3526584Y-24193368D01*
X-3521634Y-24191883D01*
X-3317571Y-24130661D01*
X-3317566Y-24130659D01*
X-3312616Y-24129174D01*
X-3112006Y-24030896D01*
X-2930140Y-23901173D01*
X-2771904Y-23743489D01*
X-2712406Y-23660689D01*
X-2641547Y-23562077D01*
X-2640224Y-23563028D01*
X-2593355Y-23519857D01*
X-2523420Y-23507625D01*
X-2457974Y-23535144D01*
X-2430125Y-23566994D01*
X-2370013Y-23665088D01*
X-2223750Y-23833938D01*
X-2051874Y-23976632D01*
X-1859000Y-24089338D01*
X-1650308Y-24169030D01*
X-1645240Y-24170061D01*
X-1645237Y-24170062D01*
X-1537983Y-24191883D01*
X-1431403Y-24213567D01*
X-1426228Y-24213757D01*
X-1426226Y-24213757D01*
X-1213327Y-24221564D01*
X-1213323Y-24221564D01*
X-1208163Y-24221753D01*
X-1203043Y-24221097D01*
X-1203041Y-24221097D01*
X-991712Y-24194025D01*
X-991711Y-24194025D01*
X-986584Y-24193368D01*
X-981634Y-24191883D01*
X-777571Y-24130661D01*
X-777566Y-24130659D01*
X-772616Y-24129174D01*
X-572006Y-24030896D01*
X-390140Y-23901173D01*
X-231904Y-23743489D01*
X-172406Y-23660689D01*
X-101547Y-23562077D01*
X-100224Y-23563028D01*
X-53355Y-23519857D01*
X16580Y-23507625D01*
X82026Y-23535144D01*
X109875Y-23566994D01*
X169987Y-23665088D01*
X316250Y-23833938D01*
X488126Y-23976632D01*
X681000Y-24089338D01*
X889692Y-24169030D01*
X894760Y-24170061D01*
X894763Y-24170062D01*
X1002017Y-24191883D01*
X1108597Y-24213567D01*
X1113772Y-24213757D01*
X1113774Y-24213757D01*
X1326673Y-24221564D01*
X1326677Y-24221564D01*
X1331837Y-24221753D01*
X1336957Y-24221097D01*
X1336959Y-24221097D01*
X1548288Y-24194025D01*
X1548289Y-24194025D01*
X1553416Y-24193368D01*
X1558366Y-24191883D01*
X1762429Y-24130661D01*
X1762434Y-24130659D01*
X1767384Y-24129174D01*
X1967994Y-24030896D01*
X2149860Y-23901173D01*
X2308096Y-23743489D01*
X2367594Y-23660689D01*
X2438453Y-23562077D01*
X2439776Y-23563028D01*
X2486645Y-23519857D01*
X2556580Y-23507625D01*
X2622026Y-23535144D01*
X2649875Y-23566994D01*
X2709987Y-23665088D01*
X2856250Y-23833938D01*
X3028126Y-23976632D01*
X3221000Y-24089338D01*
X3429692Y-24169030D01*
X3434760Y-24170061D01*
X3434763Y-24170062D01*
X3542017Y-24191883D01*
X3648597Y-24213567D01*
X3653772Y-24213757D01*
X3653774Y-24213757D01*
X3866673Y-24221564D01*
X3866677Y-24221564D01*
X3871837Y-24221753D01*
X3876957Y-24221097D01*
X3876959Y-24221097D01*
X4088288Y-24194025D01*
X4088289Y-24194025D01*
X4093416Y-24193368D01*
X4098366Y-24191883D01*
X4302429Y-24130661D01*
X4302434Y-24130659D01*
X4307384Y-24129174D01*
X4507994Y-24030896D01*
X4689860Y-23901173D01*
X4848096Y-23743489D01*
X4907594Y-23660689D01*
X4978453Y-23562077D01*
X4979776Y-23563028D01*
X5026645Y-23519857D01*
X5096580Y-23507625D01*
X5162026Y-23535144D01*
X5189875Y-23566994D01*
X5249987Y-23665088D01*
X5396250Y-23833938D01*
X5568126Y-23976632D01*
X5761000Y-24089338D01*
X5969692Y-24169030D01*
X5974760Y-24170061D01*
X5974763Y-24170062D01*
X6082017Y-24191883D01*
X6188597Y-24213567D01*
X6193772Y-24213757D01*
X6193774Y-24213757D01*
X6406673Y-24221564D01*
X6406677Y-24221564D01*
X6411837Y-24221753D01*
X6416957Y-24221097D01*
X6416959Y-24221097D01*
X6628288Y-24194025D01*
X6628289Y-24194025D01*
X6633416Y-24193368D01*
X6638366Y-24191883D01*
X6842429Y-24130661D01*
X6842434Y-24130659D01*
X6847384Y-24129174D01*
X7047994Y-24030896D01*
X7229860Y-23901173D01*
X7338091Y-23793319D01*
X7400462Y-23759404D01*
X7471268Y-23764592D01*
X7528030Y-23807238D01*
X7545012Y-23838341D01*
X7589385Y-23956705D01*
X7676739Y-24073261D01*
X7793295Y-24160615D01*
X7929684Y-24211745D01*
X7991866Y-24218500D01*
X9788134Y-24218500D01*
X9850316Y-24211745D01*
X9986705Y-24160615D01*
X10103261Y-24073261D01*
X10190615Y-23956705D01*
X10241745Y-23820316D01*
X10248500Y-23758134D01*
X10248500Y-21961866D01*
X10241745Y-21899684D01*
X10190615Y-21763295D01*
X10103261Y-21646739D01*
X9986705Y-21559385D01*
X9850316Y-21508255D01*
X9788134Y-21501500D01*
X7991866Y-21501500D01*
X7929684Y-21508255D01*
X7793295Y-21559385D01*
X7676739Y-21646739D01*
X7589385Y-21763295D01*
X7586233Y-21771703D01*
X7544919Y-21881907D01*
X7502277Y-21938671D01*
X7435716Y-21963371D01*
X7366367Y-21948163D01*
X7333743Y-21922476D01*
X7283151Y-21866875D01*
X7283142Y-21866866D01*
X7279670Y-21863051D01*
X7275619Y-21859852D01*
X7275615Y-21859848D01*
X7108414Y-21727800D01*
X7108410Y-21727798D01*
X7104359Y-21724598D01*
X6908789Y-21616638D01*
X6903920Y-21614914D01*
X6903916Y-21614912D01*
X6703087Y-21543795D01*
X6703083Y-21543794D01*
X6698212Y-21542069D01*
X6693119Y-21541162D01*
X6693116Y-21541161D01*
X6483373Y-21503800D01*
X6483367Y-21503799D01*
X6478284Y-21502894D01*
X6404452Y-21501992D01*
X6260081Y-21500228D01*
X6260079Y-21500228D01*
X6254911Y-21500165D01*
X6034091Y-21533955D01*
X5821756Y-21603357D01*
X5623607Y-21706507D01*
X5619474Y-21709610D01*
X5619471Y-21709612D01*
X5449100Y-21837530D01*
X5444965Y-21840635D01*
X5405525Y-21881907D01*
X5351280Y-21938671D01*
X5290629Y-22002138D01*
X5183201Y-22159621D01*
X5128293Y-22204621D01*
X5057768Y-22212792D01*
X4994021Y-22181538D01*
X4973324Y-22157054D01*
X4892822Y-22032617D01*
X4892820Y-22032614D01*
X4890014Y-22028277D01*
X4739670Y-21863051D01*
X4735619Y-21859852D01*
X4735615Y-21859848D01*
X4568414Y-21727800D01*
X4568410Y-21727798D01*
X4564359Y-21724598D01*
X4368789Y-21616638D01*
X4363920Y-21614914D01*
X4363916Y-21614912D01*
X4163087Y-21543795D01*
X4163083Y-21543794D01*
X4158212Y-21542069D01*
X4153119Y-21541162D01*
X4153116Y-21541161D01*
X3943373Y-21503800D01*
X3943367Y-21503799D01*
X3938284Y-21502894D01*
X3864452Y-21501992D01*
X3720081Y-21500228D01*
X3720079Y-21500228D01*
X3714911Y-21500165D01*
X3494091Y-21533955D01*
X3281756Y-21603357D01*
X3083607Y-21706507D01*
X3079474Y-21709610D01*
X3079471Y-21709612D01*
X2909100Y-21837530D01*
X2904965Y-21840635D01*
X2865525Y-21881907D01*
X2811280Y-21938671D01*
X2750629Y-22002138D01*
X2643201Y-22159621D01*
X2588293Y-22204621D01*
X2517768Y-22212792D01*
X2454021Y-22181538D01*
X2433324Y-22157054D01*
X2352822Y-22032617D01*
X2352820Y-22032614D01*
X2350014Y-22028277D01*
X2199670Y-21863051D01*
X2195619Y-21859852D01*
X2195615Y-21859848D01*
X2028414Y-21727800D01*
X2028410Y-21727798D01*
X2024359Y-21724598D01*
X1828789Y-21616638D01*
X1823920Y-21614914D01*
X1823916Y-21614912D01*
X1623087Y-21543795D01*
X1623083Y-21543794D01*
X1618212Y-21542069D01*
X1613119Y-21541162D01*
X1613116Y-21541161D01*
X1403373Y-21503800D01*
X1403367Y-21503799D01*
X1398284Y-21502894D01*
X1324452Y-21501992D01*
X1180081Y-21500228D01*
X1180079Y-21500228D01*
X1174911Y-21500165D01*
X954091Y-21533955D01*
X741756Y-21603357D01*
X543607Y-21706507D01*
X539474Y-21709610D01*
X539471Y-21709612D01*
X369100Y-21837530D01*
X364965Y-21840635D01*
X325525Y-21881907D01*
X271280Y-21938671D01*
X210629Y-22002138D01*
X103201Y-22159621D01*
X48293Y-22204621D01*
X-22232Y-22212792D01*
X-85979Y-22181538D01*
X-106676Y-22157054D01*
X-187178Y-22032617D01*
X-187180Y-22032614D01*
X-189986Y-22028277D01*
X-340330Y-21863051D01*
X-344381Y-21859852D01*
X-344385Y-21859848D01*
X-511586Y-21727800D01*
X-511590Y-21727798D01*
X-515641Y-21724598D01*
X-711211Y-21616638D01*
X-716080Y-21614914D01*
X-716084Y-21614912D01*
X-916913Y-21543795D01*
X-916917Y-21543794D01*
X-921788Y-21542069D01*
X-926881Y-21541162D01*
X-926884Y-21541161D01*
X-1136627Y-21503800D01*
X-1136633Y-21503799D01*
X-1141716Y-21502894D01*
X-1215548Y-21501992D01*
X-1359919Y-21500228D01*
X-1359921Y-21500228D01*
X-1365089Y-21500165D01*
X-1585909Y-21533955D01*
X-1798244Y-21603357D01*
X-1996393Y-21706507D01*
X-2000526Y-21709610D01*
X-2000529Y-21709612D01*
X-2170900Y-21837530D01*
X-2175035Y-21840635D01*
X-2214475Y-21881907D01*
X-2268720Y-21938671D01*
X-2329371Y-22002138D01*
X-2436799Y-22159621D01*
X-2491707Y-22204621D01*
X-2562232Y-22212792D01*
X-2625979Y-22181538D01*
X-2646676Y-22157054D01*
X-2727178Y-22032617D01*
X-2727180Y-22032614D01*
X-2729986Y-22028277D01*
X-2880330Y-21863051D01*
X-2884381Y-21859852D01*
X-2884385Y-21859848D01*
X-3051586Y-21727800D01*
X-3051590Y-21727798D01*
X-3055641Y-21724598D01*
X-3251211Y-21616638D01*
X-3256080Y-21614914D01*
X-3256084Y-21614912D01*
X-3456913Y-21543795D01*
X-3456917Y-21543794D01*
X-3461788Y-21542069D01*
X-3466881Y-21541162D01*
X-3466884Y-21541161D01*
X-3676627Y-21503800D01*
X-3676633Y-21503799D01*
X-3681716Y-21502894D01*
X-3755548Y-21501992D01*
X-3899919Y-21500228D01*
X-3899921Y-21500228D01*
X-3905089Y-21500165D01*
X-4125909Y-21533955D01*
X-4338244Y-21603357D01*
X-4536393Y-21706507D01*
X-4540526Y-21709610D01*
X-4540529Y-21709612D01*
X-4710900Y-21837530D01*
X-4715035Y-21840635D01*
X-4754475Y-21881907D01*
X-4808720Y-21938671D01*
X-4869371Y-22002138D01*
X-4995257Y-22186680D01*
X-5033885Y-22269898D01*
X-5087021Y-22384370D01*
X-5089312Y-22389305D01*
X-5149011Y-22604570D01*
X-5172749Y-22826695D01*
X-18296816Y-22826695D01*
X-18377545Y-22616390D01*
X-18381621Y-22603846D01*
X-18467645Y-22282798D01*
X-18470387Y-22269898D01*
X-18522382Y-21941617D01*
X-18523760Y-21928501D01*
X-18524076Y-21922476D01*
X-18539068Y-21636413D01*
X-18537494Y-21608910D01*
X-18537230Y-21607341D01*
X-18536424Y-21602552D01*
X-18536271Y-21590000D01*
X-18540227Y-21562376D01*
X-18541500Y-21544514D01*
X-18541500Y21536750D01*
X-18539754Y21557655D01*
X-18537230Y21572656D01*
X-18537230Y21572659D01*
X-18536424Y21577448D01*
X-18536271Y21590000D01*
X-18536961Y21594820D01*
X-18538356Y21604563D01*
X-18539455Y21629017D01*
X-18523760Y21928500D01*
X-18522382Y21941617D01*
X-18470387Y22269898D01*
X-18467645Y22282798D01*
X-18381621Y22603846D01*
X-18377545Y22616390D01*
X-18358795Y22665233D01*
X-18271246Y22893305D01*
X-10267749Y22893305D01*
X-10254890Y22670285D01*
X-10253753Y22665239D01*
X-10253752Y22665233D01*
X-10242744Y22616390D01*
X-10205778Y22452361D01*
X-10121734Y22245384D01*
X-10084315Y22184322D01*
X-10007709Y22059312D01*
X-10005013Y22054912D01*
X-9858750Y21886062D01*
X-9686874Y21743368D01*
X-9494000Y21630662D01*
X-9489175Y21628820D01*
X-9489174Y21628819D01*
X-9431321Y21606727D01*
X-9285308Y21550970D01*
X-9280240Y21549939D01*
X-9280237Y21549938D01*
X-9215415Y21536750D01*
X-9066403Y21506433D01*
X-9061228Y21506243D01*
X-9061226Y21506243D01*
X-8848327Y21498436D01*
X-8848323Y21498436D01*
X-8843163Y21498247D01*
X-8838043Y21498903D01*
X-8838041Y21498903D01*
X-8626712Y21525975D01*
X-8626711Y21525975D01*
X-8621584Y21526632D01*
X-8552771Y21547277D01*
X-8412571Y21589339D01*
X-8412566Y21589341D01*
X-8407616Y21590826D01*
X-8207006Y21689104D01*
X-8025140Y21818827D01*
X-7866904Y21976511D01*
X-7807406Y22059311D01*
X-7736547Y22157923D01*
X-7735224Y22156972D01*
X-7688355Y22200143D01*
X-7618420Y22212375D01*
X-7552974Y22184856D01*
X-7525125Y22153006D01*
X-7465013Y22054912D01*
X-7318750Y21886062D01*
X-7146874Y21743368D01*
X-6954000Y21630662D01*
X-6949175Y21628820D01*
X-6949174Y21628819D01*
X-6891321Y21606727D01*
X-6745308Y21550970D01*
X-6740240Y21549939D01*
X-6740237Y21549938D01*
X-6675415Y21536750D01*
X-6526403Y21506433D01*
X-6521228Y21506243D01*
X-6521226Y21506243D01*
X-6308327Y21498436D01*
X-6308323Y21498436D01*
X-6303163Y21498247D01*
X-6298043Y21498903D01*
X-6298041Y21498903D01*
X-6086712Y21525975D01*
X-6086711Y21525975D01*
X-6081584Y21526632D01*
X-6012771Y21547277D01*
X-5872571Y21589339D01*
X-5872566Y21589341D01*
X-5867616Y21590826D01*
X-5667006Y21689104D01*
X-5485140Y21818827D01*
X-5326904Y21976511D01*
X-5267406Y22059311D01*
X-5196547Y22157923D01*
X-5195224Y22156972D01*
X-5148355Y22200143D01*
X-5078420Y22212375D01*
X-5012974Y22184856D01*
X-4985125Y22153006D01*
X-4925013Y22054912D01*
X-4778750Y21886062D01*
X-4606874Y21743368D01*
X-4414000Y21630662D01*
X-4409175Y21628820D01*
X-4409174Y21628819D01*
X-4351321Y21606727D01*
X-4205308Y21550970D01*
X-4200240Y21549939D01*
X-4200237Y21549938D01*
X-4135415Y21536750D01*
X-3986403Y21506433D01*
X-3981228Y21506243D01*
X-3981226Y21506243D01*
X-3768327Y21498436D01*
X-3768323Y21498436D01*
X-3763163Y21498247D01*
X-3758043Y21498903D01*
X-3758041Y21498903D01*
X-3546712Y21525975D01*
X-3546711Y21525975D01*
X-3541584Y21526632D01*
X-3472771Y21547277D01*
X-3332571Y21589339D01*
X-3332566Y21589341D01*
X-3327616Y21590826D01*
X-3127006Y21689104D01*
X-2945140Y21818827D01*
X-2786904Y21976511D01*
X-2727406Y22059311D01*
X-2656547Y22157923D01*
X-2655224Y22156972D01*
X-2608355Y22200143D01*
X-2538420Y22212375D01*
X-2472974Y22184856D01*
X-2445125Y22153006D01*
X-2385013Y22054912D01*
X-2238750Y21886062D01*
X-2066874Y21743368D01*
X-1874000Y21630662D01*
X-1869175Y21628820D01*
X-1869174Y21628819D01*
X-1811321Y21606727D01*
X-1665308Y21550970D01*
X-1660240Y21549939D01*
X-1660237Y21549938D01*
X-1595415Y21536750D01*
X-1446403Y21506433D01*
X-1441228Y21506243D01*
X-1441226Y21506243D01*
X-1228327Y21498436D01*
X-1228323Y21498436D01*
X-1223163Y21498247D01*
X-1218043Y21498903D01*
X-1218041Y21498903D01*
X-1006712Y21525975D01*
X-1006711Y21525975D01*
X-1001584Y21526632D01*
X-932771Y21547277D01*
X-792571Y21589339D01*
X-792566Y21589341D01*
X-787616Y21590826D01*
X-587006Y21689104D01*
X-405140Y21818827D01*
X-246904Y21976511D01*
X-187406Y22059311D01*
X-116547Y22157923D01*
X-115224Y22156972D01*
X-68355Y22200143D01*
X1580Y22212375D01*
X67026Y22184856D01*
X94875Y22153006D01*
X154987Y22054912D01*
X301250Y21886062D01*
X473126Y21743368D01*
X666000Y21630662D01*
X670825Y21628820D01*
X670826Y21628819D01*
X728679Y21606727D01*
X874692Y21550970D01*
X879760Y21549939D01*
X879763Y21549938D01*
X944585Y21536750D01*
X1093597Y21506433D01*
X1098772Y21506243D01*
X1098774Y21506243D01*
X1311673Y21498436D01*
X1311677Y21498436D01*
X1316837Y21498247D01*
X1321957Y21498903D01*
X1321959Y21498903D01*
X1533288Y21525975D01*
X1533289Y21525975D01*
X1538416Y21526632D01*
X1607229Y21547277D01*
X1747429Y21589339D01*
X1747434Y21589341D01*
X1752384Y21590826D01*
X1952994Y21689104D01*
X2134860Y21818827D01*
X2293096Y21976511D01*
X2352594Y22059311D01*
X2423453Y22157923D01*
X2424776Y22156972D01*
X2471645Y22200143D01*
X2541580Y22212375D01*
X2607026Y22184856D01*
X2634875Y22153006D01*
X2694987Y22054912D01*
X2841250Y21886062D01*
X3013126Y21743368D01*
X3206000Y21630662D01*
X3210825Y21628820D01*
X3210826Y21628819D01*
X3268679Y21606727D01*
X3414692Y21550970D01*
X3419760Y21549939D01*
X3419763Y21549938D01*
X3484585Y21536750D01*
X3633597Y21506433D01*
X3638772Y21506243D01*
X3638774Y21506243D01*
X3851673Y21498436D01*
X3851677Y21498436D01*
X3856837Y21498247D01*
X3861957Y21498903D01*
X3861959Y21498903D01*
X4073288Y21525975D01*
X4073289Y21525975D01*
X4078416Y21526632D01*
X4147229Y21547277D01*
X4287429Y21589339D01*
X4287434Y21589341D01*
X4292384Y21590826D01*
X4492994Y21689104D01*
X4674860Y21818827D01*
X4833096Y21976511D01*
X4892594Y22059311D01*
X4963453Y22157923D01*
X4964776Y22156972D01*
X5011645Y22200143D01*
X5081580Y22212375D01*
X5147026Y22184856D01*
X5174875Y22153006D01*
X5234987Y22054912D01*
X5381250Y21886062D01*
X5553126Y21743368D01*
X5746000Y21630662D01*
X5750825Y21628820D01*
X5750826Y21628819D01*
X5808679Y21606727D01*
X5954692Y21550970D01*
X5959760Y21549939D01*
X5959763Y21549938D01*
X6024585Y21536750D01*
X6173597Y21506433D01*
X6178772Y21506243D01*
X6178774Y21506243D01*
X6391673Y21498436D01*
X6391677Y21498436D01*
X6396837Y21498247D01*
X6401957Y21498903D01*
X6401959Y21498903D01*
X6613288Y21525975D01*
X6613289Y21525975D01*
X6618416Y21526632D01*
X6687229Y21547277D01*
X6827429Y21589339D01*
X6827434Y21589341D01*
X6832384Y21590826D01*
X7032994Y21689104D01*
X7214860Y21818827D01*
X7323091Y21926681D01*
X7385462Y21960596D01*
X7456268Y21955408D01*
X7513030Y21912762D01*
X7530012Y21881659D01*
X7574385Y21763295D01*
X7661739Y21646739D01*
X7778295Y21559385D01*
X7914684Y21508255D01*
X7976866Y21501500D01*
X9773134Y21501500D01*
X9835316Y21508255D01*
X9971705Y21559385D01*
X10088261Y21646739D01*
X10175615Y21763295D01*
X10226745Y21899684D01*
X10233500Y21961866D01*
X10233500Y23758134D01*
X10226745Y23820316D01*
X10175615Y23956705D01*
X10088261Y24073261D01*
X9971705Y24160615D01*
X9835316Y24211745D01*
X9773134Y24218500D01*
X7976866Y24218500D01*
X7914684Y24211745D01*
X7778295Y24160615D01*
X7661739Y24073261D01*
X7574385Y23956705D01*
X7571233Y23948297D01*
X7529919Y23838093D01*
X7487277Y23781329D01*
X7420716Y23756629D01*
X7351367Y23771837D01*
X7318743Y23797524D01*
X7268151Y23853125D01*
X7268142Y23853134D01*
X7264670Y23856949D01*
X7260619Y23860148D01*
X7260615Y23860152D01*
X7093414Y23992200D01*
X7093410Y23992202D01*
X7089359Y23995402D01*
X6893789Y24103362D01*
X6888920Y24105086D01*
X6888916Y24105088D01*
X6688087Y24176205D01*
X6688083Y24176206D01*
X6683212Y24177931D01*
X6678119Y24178838D01*
X6678116Y24178839D01*
X6468373Y24216200D01*
X6468367Y24216201D01*
X6463284Y24217106D01*
X6389452Y24218008D01*
X6245081Y24219772D01*
X6245079Y24219772D01*
X6239911Y24219835D01*
X6019091Y24186045D01*
X5806756Y24116643D01*
X5608607Y24013493D01*
X5604474Y24010390D01*
X5604471Y24010388D01*
X5434100Y23882470D01*
X5429965Y23879365D01*
X5390525Y23838093D01*
X5336280Y23781329D01*
X5275629Y23717862D01*
X5168201Y23560379D01*
X5113293Y23515379D01*
X5042768Y23507208D01*
X4979021Y23538462D01*
X4958324Y23562946D01*
X4877822Y23687383D01*
X4877820Y23687386D01*
X4875014Y23691723D01*
X4724670Y23856949D01*
X4720619Y23860148D01*
X4720615Y23860152D01*
X4553414Y23992200D01*
X4553410Y23992202D01*
X4549359Y23995402D01*
X4353789Y24103362D01*
X4348920Y24105086D01*
X4348916Y24105088D01*
X4148087Y24176205D01*
X4148083Y24176206D01*
X4143212Y24177931D01*
X4138119Y24178838D01*
X4138116Y24178839D01*
X3928373Y24216200D01*
X3928367Y24216201D01*
X3923284Y24217106D01*
X3849452Y24218008D01*
X3705081Y24219772D01*
X3705079Y24219772D01*
X3699911Y24219835D01*
X3479091Y24186045D01*
X3266756Y24116643D01*
X3068607Y24013493D01*
X3064474Y24010390D01*
X3064471Y24010388D01*
X2894100Y23882470D01*
X2889965Y23879365D01*
X2850525Y23838093D01*
X2796280Y23781329D01*
X2735629Y23717862D01*
X2628201Y23560379D01*
X2573293Y23515379D01*
X2502768Y23507208D01*
X2439021Y23538462D01*
X2418324Y23562946D01*
X2337822Y23687383D01*
X2337820Y23687386D01*
X2335014Y23691723D01*
X2184670Y23856949D01*
X2180619Y23860148D01*
X2180615Y23860152D01*
X2013414Y23992200D01*
X2013410Y23992202D01*
X2009359Y23995402D01*
X1813789Y24103362D01*
X1808920Y24105086D01*
X1808916Y24105088D01*
X1608087Y24176205D01*
X1608083Y24176206D01*
X1603212Y24177931D01*
X1598119Y24178838D01*
X1598116Y24178839D01*
X1388373Y24216200D01*
X1388367Y24216201D01*
X1383284Y24217106D01*
X1309452Y24218008D01*
X1165081Y24219772D01*
X1165079Y24219772D01*
X1159911Y24219835D01*
X939091Y24186045D01*
X726756Y24116643D01*
X528607Y24013493D01*
X524474Y24010390D01*
X524471Y24010388D01*
X354100Y23882470D01*
X349965Y23879365D01*
X310525Y23838093D01*
X256280Y23781329D01*
X195629Y23717862D01*
X88201Y23560379D01*
X33293Y23515379D01*
X-37232Y23507208D01*
X-100979Y23538462D01*
X-121676Y23562946D01*
X-202178Y23687383D01*
X-202180Y23687386D01*
X-204986Y23691723D01*
X-355330Y23856949D01*
X-359381Y23860148D01*
X-359385Y23860152D01*
X-526586Y23992200D01*
X-526590Y23992202D01*
X-530641Y23995402D01*
X-726211Y24103362D01*
X-731080Y24105086D01*
X-731084Y24105088D01*
X-931913Y24176205D01*
X-931917Y24176206D01*
X-936788Y24177931D01*
X-941881Y24178838D01*
X-941884Y24178839D01*
X-1151627Y24216200D01*
X-1151633Y24216201D01*
X-1156716Y24217106D01*
X-1230548Y24218008D01*
X-1374919Y24219772D01*
X-1374921Y24219772D01*
X-1380089Y24219835D01*
X-1600909Y24186045D01*
X-1813244Y24116643D01*
X-2011393Y24013493D01*
X-2015526Y24010390D01*
X-2015529Y24010388D01*
X-2185900Y23882470D01*
X-2190035Y23879365D01*
X-2229475Y23838093D01*
X-2283720Y23781329D01*
X-2344371Y23717862D01*
X-2451799Y23560379D01*
X-2506707Y23515379D01*
X-2577232Y23507208D01*
X-2640979Y23538462D01*
X-2661676Y23562946D01*
X-2742178Y23687383D01*
X-2742180Y23687386D01*
X-2744986Y23691723D01*
X-2895330Y23856949D01*
X-2899381Y23860148D01*
X-2899385Y23860152D01*
X-3066586Y23992200D01*
X-3066590Y23992202D01*
X-3070641Y23995402D01*
X-3266211Y24103362D01*
X-3271080Y24105086D01*
X-3271084Y24105088D01*
X-3471913Y24176205D01*
X-3471917Y24176206D01*
X-3476788Y24177931D01*
X-3481881Y24178838D01*
X-3481884Y24178839D01*
X-3691627Y24216200D01*
X-3691633Y24216201D01*
X-3696716Y24217106D01*
X-3770548Y24218008D01*
X-3914919Y24219772D01*
X-3914921Y24219772D01*
X-3920089Y24219835D01*
X-4140909Y24186045D01*
X-4353244Y24116643D01*
X-4551393Y24013493D01*
X-4555526Y24010390D01*
X-4555529Y24010388D01*
X-4725900Y23882470D01*
X-4730035Y23879365D01*
X-4769475Y23838093D01*
X-4823720Y23781329D01*
X-4884371Y23717862D01*
X-4991799Y23560379D01*
X-5046707Y23515379D01*
X-5117232Y23507208D01*
X-5180979Y23538462D01*
X-5201676Y23562946D01*
X-5282178Y23687383D01*
X-5282180Y23687386D01*
X-5284986Y23691723D01*
X-5435330Y23856949D01*
X-5439381Y23860148D01*
X-5439385Y23860152D01*
X-5606586Y23992200D01*
X-5606590Y23992202D01*
X-5610641Y23995402D01*
X-5806211Y24103362D01*
X-5811080Y24105086D01*
X-5811084Y24105088D01*
X-6011913Y24176205D01*
X-6011917Y24176206D01*
X-6016788Y24177931D01*
X-6021881Y24178838D01*
X-6021884Y24178839D01*
X-6231627Y24216200D01*
X-6231633Y24216201D01*
X-6236716Y24217106D01*
X-6310548Y24218008D01*
X-6454919Y24219772D01*
X-6454921Y24219772D01*
X-6460089Y24219835D01*
X-6680909Y24186045D01*
X-6893244Y24116643D01*
X-7091393Y24013493D01*
X-7095526Y24010390D01*
X-7095529Y24010388D01*
X-7265900Y23882470D01*
X-7270035Y23879365D01*
X-7309475Y23838093D01*
X-7363720Y23781329D01*
X-7424371Y23717862D01*
X-7531799Y23560379D01*
X-7586707Y23515379D01*
X-7657232Y23507208D01*
X-7720979Y23538462D01*
X-7741676Y23562946D01*
X-7822178Y23687383D01*
X-7822180Y23687386D01*
X-7824986Y23691723D01*
X-7975330Y23856949D01*
X-7979381Y23860148D01*
X-7979385Y23860152D01*
X-8146586Y23992200D01*
X-8146590Y23992202D01*
X-8150641Y23995402D01*
X-8346211Y24103362D01*
X-8351080Y24105086D01*
X-8351084Y24105088D01*
X-8551913Y24176205D01*
X-8551917Y24176206D01*
X-8556788Y24177931D01*
X-8561881Y24178838D01*
X-8561884Y24178839D01*
X-8771627Y24216200D01*
X-8771633Y24216201D01*
X-8776716Y24217106D01*
X-8850548Y24218008D01*
X-8994919Y24219772D01*
X-8994921Y24219772D01*
X-9000089Y24219835D01*
X-9220909Y24186045D01*
X-9433244Y24116643D01*
X-9631393Y24013493D01*
X-9635526Y24010390D01*
X-9635529Y24010388D01*
X-9805900Y23882470D01*
X-9810035Y23879365D01*
X-9849475Y23838093D01*
X-9903720Y23781329D01*
X-9964371Y23717862D01*
X-10090257Y23533320D01*
X-10184312Y23330695D01*
X-10244011Y23115430D01*
X-10267749Y22893305D01*
X-18271246Y22893305D01*
X-18258438Y22926672D01*
X-18253074Y22938720D01*
X-18102180Y23234867D01*
X-18095586Y23246288D01*
X-17914563Y23525040D01*
X-17906810Y23535710D01*
X-17697648Y23794004D01*
X-17688823Y23803805D01*
X-17453805Y24038823D01*
X-17444004Y24047648D01*
X-17185710Y24256810D01*
X-17175040Y24264563D01*
X-16896288Y24445586D01*
X-16884867Y24452180D01*
X-16588720Y24603074D01*
X-16576672Y24608438D01*
X-16537468Y24623487D01*
X-16266382Y24727547D01*
X-16253846Y24731621D01*
X-15932798Y24817645D01*
X-15919898Y24820387D01*
X-15591617Y24872382D01*
X-15578501Y24873760D01*
X-15544848Y24875524D01*
X-15282702Y24889262D01*
X-15256727Y24887935D01*
X-15255157Y24887691D01*
X-15255151Y24887691D01*
X-15246276Y24886309D01*
X-15237374Y24887473D01*
X-15237372Y24887473D01*
X-15222323Y24889441D01*
X-15214714Y24890436D01*
X-15198379Y24891500D01*
X15190633Y24891500D01*
X15210018Y24890000D01*
G37*
%TD.AperFunction*%
%TD*%
M02*
